<mxfile host="Electron" modified="2024-03-04T12:54:00.260Z" agent="Mozilla/5.0 (X11; Linux x86_64) AppleWebKit/537.36 (KHTML, like Gecko) draw.io/22.1.2 Chrome/114.0.5735.289 Electron/25.9.4 Safari/537.36" etag="XpmuyURwK5j9tNuhZVHO" version="22.1.2" type="device">
  <diagram name="Page-1" id="8VKyxFyfPZ4FyQ1nRCPz">
    <mxGraphModel dx="1434" dy="963" grid="1" gridSize="10" guides="1" tooltips="1" connect="1" arrows="1" fold="1" page="1" pageScale="1" pageWidth="850" pageHeight="1100" math="0" shadow="0">
      <root>
        <mxCell id="0" />
        <mxCell id="1" parent="0" />
        <mxCell id="Qgp2LlFuuxw4ACLHFYo1-34" style="edgeStyle=orthogonalEdgeStyle;rounded=0;orthogonalLoop=1;jettySize=auto;html=1;exitX=0.5;exitY=1;exitDx=0;exitDy=0;entryX=0.5;entryY=0;entryDx=0;entryDy=0;strokeWidth=5;" parent="1" source="Qgp2LlFuuxw4ACLHFYo1-9" target="Qgp2LlFuuxw4ACLHFYo1-24" edge="1">
          <mxGeometry relative="1" as="geometry" />
        </mxCell>
        <mxCell id="Qgp2LlFuuxw4ACLHFYo1-9" value="&lt;font style=&quot;font-size: 20px;&quot;&gt;Perception&lt;/font&gt;" style="swimlane;whiteSpace=wrap;html=1;fillColor=#1ba1e2;fontColor=#ffffff;strokeColor=#006EAF;" parent="1" vertex="1">
          <mxGeometry x="246" y="10" width="290" height="320" as="geometry">
            <mxRectangle x="340" y="160" width="100" height="30" as="alternateBounds" />
          </mxGeometry>
        </mxCell>
        <mxCell id="Qgp2LlFuuxw4ACLHFYo1-11" value="ZED2&lt;br&gt;(depth camera)" style="rounded=0;whiteSpace=wrap;html=1;" parent="Qgp2LlFuuxw4ACLHFYo1-9" vertex="1">
          <mxGeometry x="50" y="80" width="90" height="40" as="geometry" />
        </mxCell>
        <mxCell id="Qgp2LlFuuxw4ACLHFYo1-12" value="LiDAR&lt;br&gt;(2D scan)" style="rounded=0;whiteSpace=wrap;html=1;" parent="Qgp2LlFuuxw4ACLHFYo1-9" vertex="1">
          <mxGeometry x="150" y="80" width="90" height="40" as="geometry" />
        </mxCell>
        <mxCell id="Qgp2LlFuuxw4ACLHFYo1-16" style="edgeStyle=orthogonalEdgeStyle;rounded=0;orthogonalLoop=1;jettySize=auto;html=1;entryX=0.5;entryY=0;entryDx=0;entryDy=0;" parent="Qgp2LlFuuxw4ACLHFYo1-9" source="Qgp2LlFuuxw4ACLHFYo1-15" target="Qgp2LlFuuxw4ACLHFYo1-11" edge="1">
          <mxGeometry relative="1" as="geometry">
            <Array as="points">
              <mxPoint x="145" y="70" />
              <mxPoint x="95" y="70" />
            </Array>
          </mxGeometry>
        </mxCell>
        <mxCell id="Qgp2LlFuuxw4ACLHFYo1-17" style="edgeStyle=orthogonalEdgeStyle;rounded=0;orthogonalLoop=1;jettySize=auto;html=1;exitX=0.5;exitY=1;exitDx=0;exitDy=0;" parent="Qgp2LlFuuxw4ACLHFYo1-9" source="Qgp2LlFuuxw4ACLHFYo1-15" target="Qgp2LlFuuxw4ACLHFYo1-12" edge="1">
          <mxGeometry relative="1" as="geometry">
            <Array as="points">
              <mxPoint x="145" y="70" />
              <mxPoint x="195" y="70" />
            </Array>
          </mxGeometry>
        </mxCell>
        <mxCell id="Qgp2LlFuuxw4ACLHFYo1-15" value="&lt;b&gt;Task: &lt;/b&gt;recognize cones from data obtained by the following sensors:" style="text;html=1;strokeColor=none;fillColor=none;align=center;verticalAlign=middle;whiteSpace=wrap;rounded=0;" parent="Qgp2LlFuuxw4ACLHFYo1-9" vertex="1">
          <mxGeometry x="20" y="30" width="250" height="30" as="geometry" />
        </mxCell>
        <mxCell id="Qgp2LlFuuxw4ACLHFYo1-19" value="&lt;b&gt;Recommended libraries/repositories&lt;/b&gt;" style="swimlane;fontStyle=0;childLayout=stackLayout;horizontal=1;startSize=30;horizontalStack=0;resizeParent=1;resizeParentMax=0;resizeLast=0;collapsible=1;marginBottom=0;whiteSpace=wrap;html=1;fillColor=#a20025;fontColor=#ffffff;strokeColor=#6F0000;" parent="Qgp2LlFuuxw4ACLHFYo1-9" vertex="1">
          <mxGeometry x="10" y="140" width="270" height="170" as="geometry" />
        </mxCell>
        <mxCell id="Qgp2LlFuuxw4ACLHFYo1-20" value="&lt;a href=&quot;https://www.researchgate.net/profile/Mark-Pfeiffer/publication/320891181_Cone_Detection_using_a_Combination_of_LiDAR_and_Vision-based_Machine_Learning/links/5b0bc0314585157f871b431d/Cone-Detection-using-a-Combination-of-LiDAR-and-Vision-based-Machine-Learning.pdf?_tp=eyJjb250ZXh0Ijp7ImZpcnN0UGFnZSI6InB1YmxpY2F0aW9uIiwicGFnZSI6InB1YmxpY2F0aW9uIn19&quot;&gt;Cone Detection using LiDAR and Camera&lt;/a&gt; &lt;b&gt;(ETH Zurich)&lt;/b&gt;" style="text;strokeColor=none;fillColor=none;align=left;verticalAlign=middle;spacingLeft=4;spacingRight=4;overflow=hidden;points=[[0,0.5],[1,0.5]];portConstraint=eastwest;rotatable=0;whiteSpace=wrap;html=1;" parent="Qgp2LlFuuxw4ACLHFYo1-19" vertex="1">
          <mxGeometry y="30" width="270" height="30" as="geometry" />
        </mxCell>
        <mxCell id="Qgp2LlFuuxw4ACLHFYo1-21" value="&lt;a href=&quot;https://github.com/szenergy/formula_student_packages?tab=readme-ov-file&quot;&gt;Formula Student Pkg&lt;/a&gt; by &lt;b&gt;University of Gyor&lt;/b&gt; &lt;i&gt;(expecially &lt;a href=&quot;https://github.com/jkk-research/pointcloud_to_grid&quot;&gt;this&lt;/a&gt;)&lt;/i&gt;" style="text;strokeColor=none;fillColor=none;align=left;verticalAlign=middle;spacingLeft=4;spacingRight=4;overflow=hidden;points=[[0,0.5],[1,0.5]];portConstraint=eastwest;rotatable=0;whiteSpace=wrap;html=1;" parent="Qgp2LlFuuxw4ACLHFYo1-19" vertex="1">
          <mxGeometry y="60" width="270" height="50" as="geometry" />
        </mxCell>
        <mxCell id="Qgp2LlFuuxw4ACLHFYo1-22" value="&lt;a href=&quot;https://github.com/Hammad-Safeer42/Autonomous_Vehicle_Perception&quot;&gt;Perception Autonomous Vehicle&lt;/a&gt;" style="text;strokeColor=none;fillColor=none;align=left;verticalAlign=middle;spacingLeft=4;spacingRight=4;overflow=hidden;points=[[0,0.5],[1,0.5]];portConstraint=eastwest;rotatable=0;whiteSpace=wrap;html=1;" parent="Qgp2LlFuuxw4ACLHFYo1-19" vertex="1">
          <mxGeometry y="110" width="270" height="30" as="geometry" />
        </mxCell>
        <mxCell id="eDe5voWOfxt5IWZAMDhW-1" value="&lt;a href=&quot;https://www.fsoco-dataset.com/&quot;&gt;FSOCO&lt;/a&gt; dataset for cone" style="text;strokeColor=none;fillColor=none;align=left;verticalAlign=middle;spacingLeft=4;spacingRight=4;overflow=hidden;points=[[0,0.5],[1,0.5]];portConstraint=eastwest;rotatable=0;whiteSpace=wrap;html=1;" vertex="1" parent="Qgp2LlFuuxw4ACLHFYo1-19">
          <mxGeometry y="140" width="270" height="30" as="geometry" />
        </mxCell>
        <mxCell id="Qgp2LlFuuxw4ACLHFYo1-46" style="edgeStyle=orthogonalEdgeStyle;rounded=0;orthogonalLoop=1;jettySize=auto;html=1;exitX=0.5;exitY=1;exitDx=0;exitDy=0;strokeWidth=5;" parent="1" source="Qgp2LlFuuxw4ACLHFYo1-24" target="Qgp2LlFuuxw4ACLHFYo1-35" edge="1">
          <mxGeometry relative="1" as="geometry" />
        </mxCell>
        <mxCell id="Qgp2LlFuuxw4ACLHFYo1-57" style="edgeStyle=orthogonalEdgeStyle;rounded=0;orthogonalLoop=1;jettySize=auto;html=1;exitX=0.5;exitY=1;exitDx=0;exitDy=0;strokeWidth=5;" parent="1" source="Qgp2LlFuuxw4ACLHFYo1-24" target="Qgp2LlFuuxw4ACLHFYo1-47" edge="1">
          <mxGeometry relative="1" as="geometry" />
        </mxCell>
        <mxCell id="Qgp2LlFuuxw4ACLHFYo1-86" value="&lt;b&gt;Cone position map&lt;/b&gt;&lt;br&gt;absolute (x,y) cones" style="edgeLabel;html=1;align=center;verticalAlign=middle;resizable=0;points=[];" parent="Qgp2LlFuuxw4ACLHFYo1-57" vertex="1" connectable="0">
          <mxGeometry x="0.2589" y="1" relative="1" as="geometry">
            <mxPoint x="5" y="19" as="offset" />
          </mxGeometry>
        </mxCell>
        <mxCell id="Qgp2LlFuuxw4ACLHFYo1-24" value="&lt;font style=&quot;font-size: 20px;&quot;&gt;SLAM&lt;/font&gt;" style="swimlane;whiteSpace=wrap;html=1;fillColor=#008a00;fontColor=#ffffff;strokeColor=#005700;" parent="1" vertex="1">
          <mxGeometry x="247.5" y="380" width="287" height="320" as="geometry">
            <mxRectangle x="340" y="160" width="100" height="30" as="alternateBounds" />
          </mxGeometry>
        </mxCell>
        <mxCell id="Qgp2LlFuuxw4ACLHFYo1-25" value="Graph SLAM" style="rounded=0;whiteSpace=wrap;html=1;" parent="Qgp2LlFuuxw4ACLHFYo1-24" vertex="1">
          <mxGeometry x="50" y="80" width="90" height="40" as="geometry" />
        </mxCell>
        <mxCell id="Qgp2LlFuuxw4ACLHFYo1-26" value="EKF/Particle Filter SLAM" style="rounded=0;whiteSpace=wrap;html=1;" parent="Qgp2LlFuuxw4ACLHFYo1-24" vertex="1">
          <mxGeometry x="150" y="80" width="90" height="40" as="geometry" />
        </mxCell>
        <mxCell id="Qgp2LlFuuxw4ACLHFYo1-27" style="edgeStyle=orthogonalEdgeStyle;rounded=0;orthogonalLoop=1;jettySize=auto;html=1;entryX=0.5;entryY=0;entryDx=0;entryDy=0;" parent="Qgp2LlFuuxw4ACLHFYo1-24" source="Qgp2LlFuuxw4ACLHFYo1-29" target="Qgp2LlFuuxw4ACLHFYo1-25" edge="1">
          <mxGeometry relative="1" as="geometry">
            <Array as="points">
              <mxPoint x="145" y="70" />
              <mxPoint x="95" y="70" />
            </Array>
          </mxGeometry>
        </mxCell>
        <mxCell id="Qgp2LlFuuxw4ACLHFYo1-28" style="edgeStyle=orthogonalEdgeStyle;rounded=0;orthogonalLoop=1;jettySize=auto;html=1;exitX=0.5;exitY=1;exitDx=0;exitDy=0;" parent="Qgp2LlFuuxw4ACLHFYo1-24" source="Qgp2LlFuuxw4ACLHFYo1-29" target="Qgp2LlFuuxw4ACLHFYo1-26" edge="1">
          <mxGeometry relative="1" as="geometry">
            <Array as="points">
              <mxPoint x="145" y="70" />
              <mxPoint x="195" y="70" />
            </Array>
          </mxGeometry>
        </mxCell>
        <mxCell id="Qgp2LlFuuxw4ACLHFYo1-29" value="&lt;b&gt;Task: &lt;/b&gt;Create a map of the explored world with the viewed cones and locate the vehicle in it" style="text;html=1;strokeColor=none;fillColor=none;align=center;verticalAlign=middle;whiteSpace=wrap;rounded=0;" parent="Qgp2LlFuuxw4ACLHFYo1-24" vertex="1">
          <mxGeometry x="20" y="30" width="250" height="30" as="geometry" />
        </mxCell>
        <mxCell id="Qgp2LlFuuxw4ACLHFYo1-30" value="&lt;b&gt;Recommended libraries/repositories&lt;/b&gt;" style="swimlane;fontStyle=0;childLayout=stackLayout;horizontal=1;startSize=30;horizontalStack=0;resizeParent=1;resizeParentMax=0;resizeLast=0;collapsible=1;marginBottom=0;whiteSpace=wrap;html=1;fillColor=#a20025;fontColor=#ffffff;strokeColor=#6F0000;" parent="Qgp2LlFuuxw4ACLHFYo1-24" vertex="1">
          <mxGeometry x="10" y="140" width="270" height="170" as="geometry" />
        </mxCell>
        <mxCell id="Qgp2LlFuuxw4ACLHFYo1-31" value="&lt;a href=&quot;https://automaticaddison.com/navigation-and-slam-using-the-ros-2-navigation-stack/&quot;&gt;Navigation and SLAM stack&lt;/a&gt; ROS2&amp;nbsp;" style="text;strokeColor=none;fillColor=none;align=left;verticalAlign=middle;spacingLeft=4;spacingRight=4;overflow=hidden;points=[[0,0.5],[1,0.5]];portConstraint=eastwest;rotatable=0;whiteSpace=wrap;html=1;" parent="Qgp2LlFuuxw4ACLHFYo1-30" vertex="1">
          <mxGeometry y="30" width="270" height="30" as="geometry" />
        </mxCell>
        <mxCell id="Qgp2LlFuuxw4ACLHFYo1-32" value="LiDAR based &lt;a href=&quot;https://github.com/Project-MANAS/slam_gmapping&quot;&gt;GSLAM&lt;/a&gt;" style="text;strokeColor=none;fillColor=none;align=left;verticalAlign=middle;spacingLeft=4;spacingRight=4;overflow=hidden;points=[[0,0.5],[1,0.5]];portConstraint=eastwest;rotatable=0;whiteSpace=wrap;html=1;" parent="Qgp2LlFuuxw4ACLHFYo1-30" vertex="1">
          <mxGeometry y="60" width="270" height="50" as="geometry" />
        </mxCell>
        <mxCell id="Qgp2LlFuuxw4ACLHFYo1-33" value="&lt;a href=&quot;https://github.com/klintan/vo-survey&quot;&gt;Visual based SLAM alghoritms list&lt;/a&gt;" style="text;strokeColor=none;fillColor=none;align=left;verticalAlign=middle;spacingLeft=4;spacingRight=4;overflow=hidden;points=[[0,0.5],[1,0.5]];portConstraint=eastwest;rotatable=0;whiteSpace=wrap;html=1;" parent="Qgp2LlFuuxw4ACLHFYo1-30" vertex="1">
          <mxGeometry y="110" width="270" height="30" as="geometry" />
        </mxCell>
        <mxCell id="64eT0Q_K7qP8ezeW0k2J-1" value="&lt;a href=&quot;https://github.com/url-kaist/patchwork-plusplus-ros/tree/ROS2&quot;&gt;Patchwork++&lt;/a&gt;" style="text;strokeColor=none;fillColor=none;align=left;verticalAlign=middle;spacingLeft=4;spacingRight=4;overflow=hidden;points=[[0,0.5],[1,0.5]];portConstraint=eastwest;rotatable=0;whiteSpace=wrap;html=1;" parent="Qgp2LlFuuxw4ACLHFYo1-30" vertex="1">
          <mxGeometry y="140" width="270" height="30" as="geometry" />
        </mxCell>
        <mxCell id="Qgp2LlFuuxw4ACLHFYo1-59" style="edgeStyle=orthogonalEdgeStyle;rounded=0;orthogonalLoop=1;jettySize=auto;html=1;exitX=0.5;exitY=1;exitDx=0;exitDy=0;strokeWidth=5;" parent="1" source="Qgp2LlFuuxw4ACLHFYo1-35" edge="1">
          <mxGeometry relative="1" as="geometry">
            <Array as="points">
              <mxPoint x="614" y="1090" />
              <mxPoint x="806" y="1090" />
              <mxPoint x="806" y="525" />
            </Array>
            <mxPoint x="536" y="525" as="targetPoint" />
          </mxGeometry>
        </mxCell>
        <mxCell id="Qgp2LlFuuxw4ACLHFYo1-60" value="&lt;b&gt;Control signal&amp;nbsp;&lt;/b&gt;&lt;br&gt;(steering angle &amp;amp; pedal)" style="edgeLabel;html=1;align=center;verticalAlign=middle;resizable=0;points=[];labelBackgroundColor=none;" parent="Qgp2LlFuuxw4ACLHFYo1-59" vertex="1" connectable="0">
          <mxGeometry x="0.8068" y="2" relative="1" as="geometry">
            <mxPoint x="30" y="-27" as="offset" />
          </mxGeometry>
        </mxCell>
        <mxCell id="Qgp2LlFuuxw4ACLHFYo1-35" value="&lt;font style=&quot;font-size: 20px;&quot;&gt;MPC&lt;/font&gt;" style="swimlane;whiteSpace=wrap;html=1;fillColor=#f0a30a;fontColor=#000000;strokeColor=#BD7000;startSize=23;" parent="1" vertex="1">
          <mxGeometry x="469" y="830" width="290" height="240" as="geometry">
            <mxRectangle x="340" y="160" width="100" height="30" as="alternateBounds" />
          </mxGeometry>
        </mxCell>
        <mxCell id="Qgp2LlFuuxw4ACLHFYo1-84" style="edgeStyle=orthogonalEdgeStyle;rounded=0;orthogonalLoop=1;jettySize=auto;html=1;entryX=0;entryY=0.5;entryDx=0;entryDy=0;" parent="Qgp2LlFuuxw4ACLHFYo1-35" source="Qgp2LlFuuxw4ACLHFYo1-36" target="Qgp2LlFuuxw4ACLHFYo1-37" edge="1">
          <mxGeometry relative="1" as="geometry">
            <Array as="points">
              <mxPoint x="147" y="100" />
              <mxPoint x="147" y="105" />
            </Array>
          </mxGeometry>
        </mxCell>
        <mxCell id="Qgp2LlFuuxw4ACLHFYo1-36" value="Kinematic model (&lt;b&gt;now&lt;/b&gt;)" style="rounded=0;whiteSpace=wrap;html=1;" parent="Qgp2LlFuuxw4ACLHFYo1-35" vertex="1">
          <mxGeometry x="37" y="80" width="90" height="40" as="geometry" />
        </mxCell>
        <mxCell id="Qgp2LlFuuxw4ACLHFYo1-37" value="&lt;div style=&quot;&quot;&gt;&lt;span style=&quot;background-color: initial;&quot;&gt;&lt;font style=&quot;font-size: 6px;&quot;&gt;Single/Double-track with load transfer (&lt;i&gt;and other automotive engineers stuff&lt;/i&gt;)&lt;/font&gt;&lt;/span&gt;&lt;/div&gt;" style="rounded=0;whiteSpace=wrap;html=1;align=center;" parent="Qgp2LlFuuxw4ACLHFYo1-35" vertex="1">
          <mxGeometry x="167" y="80" width="90" height="50" as="geometry" />
        </mxCell>
        <mxCell id="Qgp2LlFuuxw4ACLHFYo1-40" value="&lt;b&gt;Task: &lt;/b&gt;Compute the &quot;&quot;best&quot;&quot; control to follow the given trajectory (knowing a &lt;i&gt;simple&lt;/i&gt;&amp;nbsp;vehicle model)" style="text;html=1;strokeColor=none;fillColor=none;align=center;verticalAlign=middle;whiteSpace=wrap;rounded=0;" parent="Qgp2LlFuuxw4ACLHFYo1-35" vertex="1">
          <mxGeometry x="20" y="30" width="250" height="40" as="geometry" />
        </mxCell>
        <mxCell id="Qgp2LlFuuxw4ACLHFYo1-41" value="&lt;b&gt;Recommended libraries/repositories&lt;/b&gt;" style="swimlane;fontStyle=0;childLayout=stackLayout;horizontal=1;startSize=30;horizontalStack=0;resizeParent=1;resizeParentMax=0;resizeLast=0;collapsible=1;marginBottom=0;whiteSpace=wrap;html=1;fillColor=#a20025;fontColor=#ffffff;strokeColor=#6F0000;" parent="Qgp2LlFuuxw4ACLHFYo1-35" vertex="1">
          <mxGeometry x="10" y="140" width="270" height="90" as="geometry" />
        </mxCell>
        <mxCell id="Qgp2LlFuuxw4ACLHFYo1-44" value="&lt;a href=&quot;https://navigation.ros.org/configuration/packages/configuring-mppic.html&quot;&gt;Model Predictive Path Integral Controller&lt;/a&gt;" style="text;strokeColor=none;fillColor=none;align=left;verticalAlign=middle;spacingLeft=4;spacingRight=4;overflow=hidden;points=[[0,0.5],[1,0.5]];portConstraint=eastwest;rotatable=0;whiteSpace=wrap;html=1;" parent="Qgp2LlFuuxw4ACLHFYo1-41" vertex="1">
          <mxGeometry y="30" width="270" height="30" as="geometry" />
        </mxCell>
        <mxCell id="64eT0Q_K7qP8ezeW0k2J-2" value="&lt;a href=&quot;https://github.com/PepMS/eagle_mpc_ros2&quot;&gt;Eagle MPC&lt;/a&gt;&amp;nbsp;(&lt;b&gt;WIP)&lt;/b&gt;" style="text;strokeColor=none;fillColor=none;align=left;verticalAlign=middle;spacingLeft=4;spacingRight=4;overflow=hidden;points=[[0,0.5],[1,0.5]];portConstraint=eastwest;rotatable=0;whiteSpace=wrap;html=1;" parent="Qgp2LlFuuxw4ACLHFYo1-41" vertex="1">
          <mxGeometry y="60" width="270" height="30" as="geometry" />
        </mxCell>
        <mxCell id="Qgp2LlFuuxw4ACLHFYo1-58" style="edgeStyle=orthogonalEdgeStyle;rounded=0;orthogonalLoop=1;jettySize=auto;html=1;exitX=1;exitY=0.5;exitDx=0;exitDy=0;entryX=0;entryY=0.5;entryDx=0;entryDy=0;strokeWidth=5;" parent="1" source="Qgp2LlFuuxw4ACLHFYo1-47" target="Qgp2LlFuuxw4ACLHFYo1-35" edge="1">
          <mxGeometry relative="1" as="geometry" />
        </mxCell>
        <mxCell id="Qgp2LlFuuxw4ACLHFYo1-47" value="&lt;font style=&quot;font-size: 20px;&quot;&gt;Trajectory Planner&lt;/font&gt;" style="swimlane;whiteSpace=wrap;html=1;fillColor=#647687;fontColor=#ffffff;strokeColor=#314354;startSize=23;" parent="1" vertex="1">
          <mxGeometry x="44" y="830" width="290" height="260" as="geometry">
            <mxRectangle x="340" y="160" width="100" height="30" as="alternateBounds" />
          </mxGeometry>
        </mxCell>
        <mxCell id="Qgp2LlFuuxw4ACLHFYo1-83" style="edgeStyle=orthogonalEdgeStyle;rounded=0;orthogonalLoop=1;jettySize=auto;html=1;entryX=0;entryY=0.5;entryDx=0;entryDy=0;" parent="Qgp2LlFuuxw4ACLHFYo1-47" source="Qgp2LlFuuxw4ACLHFYo1-48" target="Qgp2LlFuuxw4ACLHFYo1-49" edge="1">
          <mxGeometry relative="1" as="geometry" />
        </mxCell>
        <mxCell id="Qgp2LlFuuxw4ACLHFYo1-48" value="centerline&lt;br&gt;(&lt;b&gt;now)&lt;/b&gt;" style="rounded=0;whiteSpace=wrap;html=1;" parent="Qgp2LlFuuxw4ACLHFYo1-47" vertex="1">
          <mxGeometry x="39" y="70" width="90" height="40" as="geometry" />
        </mxCell>
        <mxCell id="Qgp2LlFuuxw4ACLHFYo1-49" value="Optimal raceline&lt;br&gt;(&lt;b&gt;future&lt;/b&gt;)" style="rounded=0;whiteSpace=wrap;html=1;" parent="Qgp2LlFuuxw4ACLHFYo1-47" vertex="1">
          <mxGeometry x="161" y="90" width="90" height="40" as="geometry" />
        </mxCell>
        <mxCell id="Qgp2LlFuuxw4ACLHFYo1-52" value="&lt;b&gt;Task: &lt;/b&gt;Knowing the map (expecially cones position) compute a trajectory to stay on track" style="text;html=1;strokeColor=none;fillColor=none;align=center;verticalAlign=middle;whiteSpace=wrap;rounded=0;" parent="Qgp2LlFuuxw4ACLHFYo1-47" vertex="1">
          <mxGeometry x="20" y="30" width="250" height="30" as="geometry" />
        </mxCell>
        <mxCell id="Qgp2LlFuuxw4ACLHFYo1-53" value="&lt;b&gt;Recommended libraries/repositories&lt;/b&gt;" style="swimlane;fontStyle=0;childLayout=stackLayout;horizontal=1;startSize=30;horizontalStack=0;resizeParent=1;resizeParentMax=0;resizeLast=0;collapsible=1;marginBottom=0;whiteSpace=wrap;html=1;fillColor=#a20025;fontColor=#ffffff;strokeColor=#6F0000;" parent="Qgp2LlFuuxw4ACLHFYo1-47" vertex="1">
          <mxGeometry x="10" y="140" width="270" height="110" as="geometry" />
        </mxCell>
        <mxCell id="Qgp2LlFuuxw4ACLHFYo1-54" value="&lt;a href=&quot;https://automaticaddison.com/navigation-and-slam-using-the-ros-2-navigation-stack/&quot;&gt;Navigation and SLAM stack&lt;/a&gt;&amp;nbsp;ROS2&amp;nbsp;" style="text;strokeColor=none;fillColor=none;align=left;verticalAlign=middle;spacingLeft=4;spacingRight=4;overflow=hidden;points=[[0,0.5],[1,0.5]];portConstraint=eastwest;rotatable=0;whiteSpace=wrap;html=1;" parent="Qgp2LlFuuxw4ACLHFYo1-53" vertex="1">
          <mxGeometry y="30" width="270" height="30" as="geometry" />
        </mxCell>
        <mxCell id="Qgp2LlFuuxw4ACLHFYo1-55" value="MoveIt2 (link to &lt;a href=&quot;https://moveit.ros.org/&quot;&gt;website&lt;/a&gt;&amp;nbsp;and &lt;a href=&quot;https://github.com/ros-planning/moveit2&quot;&gt;GitHub repo&lt;/a&gt;)" style="text;strokeColor=none;fillColor=none;align=left;verticalAlign=middle;spacingLeft=4;spacingRight=4;overflow=hidden;points=[[0,0.5],[1,0.5]];portConstraint=eastwest;rotatable=0;whiteSpace=wrap;html=1;" parent="Qgp2LlFuuxw4ACLHFYo1-53" vertex="1">
          <mxGeometry y="60" width="270" height="50" as="geometry" />
        </mxCell>
        <mxCell id="Qgp2LlFuuxw4ACLHFYo1-61" value="&lt;b&gt;Relative cone position&lt;br&gt;&lt;/b&gt;(e.g. Range &amp;amp; Bearing)" style="edgeLabel;html=1;align=center;verticalAlign=middle;resizable=0;points=[];labelBackgroundColor=none;" parent="1" vertex="1" connectable="0">
          <mxGeometry x="460.00333333333253" y="355" as="geometry" />
        </mxCell>
        <mxCell id="Qgp2LlFuuxw4ACLHFYo1-76" style="edgeStyle=orthogonalEdgeStyle;rounded=0;orthogonalLoop=1;jettySize=auto;html=1;entryX=1;entryY=0.75;entryDx=0;entryDy=0;exitX=0.5;exitY=0;exitDx=0;exitDy=0;strokeWidth=5;" parent="1" source="Qgp2LlFuuxw4ACLHFYo1-63" target="Qgp2LlFuuxw4ACLHFYo1-24" edge="1">
          <mxGeometry relative="1" as="geometry" />
        </mxCell>
        <mxCell id="Qgp2LlFuuxw4ACLHFYo1-63" value="&lt;b&gt;Sensors&lt;/b&gt;&lt;br&gt;(IMU, tone wheel, ...)" style="rounded=0;whiteSpace=wrap;html=1;flipH=1;flipV=1;movable=1;resizable=1;rotatable=1;deletable=1;editable=1;locked=0;connectable=1;" parent="1" vertex="1">
          <mxGeometry x="626" y="650" width="133" height="50" as="geometry" />
        </mxCell>
        <mxCell id="Qgp2LlFuuxw4ACLHFYo1-77" style="edgeStyle=orthogonalEdgeStyle;rounded=0;orthogonalLoop=1;jettySize=auto;html=1;exitX=0.5;exitY=1;exitDx=0;exitDy=0;entryX=0.773;entryY=0.004;entryDx=0;entryDy=0;entryPerimeter=0;strokeWidth=5;" parent="1" source="Qgp2LlFuuxw4ACLHFYo1-63" target="Qgp2LlFuuxw4ACLHFYo1-35" edge="1">
          <mxGeometry relative="1" as="geometry" />
        </mxCell>
        <mxCell id="Qgp2LlFuuxw4ACLHFYo1-79" value="&lt;b&gt;Data&lt;br&gt;&lt;/b&gt;[ a&lt;sub style=&quot;&quot;&gt;x&amp;nbsp;&lt;/sub&gt;; a&lt;sub style=&quot;&quot;&gt;y&lt;/sub&gt;; yaw-rate ] &lt;br&gt;+ wheel angular speed" style="edgeLabel;html=1;align=center;verticalAlign=middle;resizable=0;points=[];labelBackgroundColor=none;" parent="1" vertex="1" connectable="0">
          <mxGeometry x="626.0000951764418" y="589.9951524443738" as="geometry" />
        </mxCell>
        <mxCell id="Qgp2LlFuuxw4ACLHFYo1-80" value="&lt;b&gt;Data&lt;br&gt;&lt;/b&gt;[ a&lt;sub style=&quot;&quot;&gt;x&amp;nbsp;&lt;/sub&gt;; a&lt;sub style=&quot;&quot;&gt;y&lt;/sub&gt;; yaw-rate ] &lt;br&gt;+ wheel angular speed" style="edgeLabel;html=1;align=center;verticalAlign=middle;resizable=0;points=[];labelBackgroundColor=default;" parent="1" vertex="1" connectable="0">
          <mxGeometry x="692.5000951764418" y="749.9951524443738" as="geometry" />
        </mxCell>
        <mxCell id="Qgp2LlFuuxw4ACLHFYo1-81" value="&lt;b&gt;Actual pose*&lt;br&gt;&lt;/b&gt;(x,y,z + rx,ry,rz)" style="edgeLabel;html=1;align=center;verticalAlign=middle;resizable=0;points=[];labelBackgroundColor=default;" parent="1" vertex="1" connectable="0">
          <mxGeometry x="392.50333333333253" y="730" as="geometry" />
        </mxCell>
        <mxCell id="Qgp2LlFuuxw4ACLHFYo1-82" value="&lt;b&gt;Reference Trajectory&lt;br&gt;&lt;/b&gt;(spline or waypoint)" style="edgeLabel;html=1;align=center;verticalAlign=middle;resizable=0;points=[];labelBackgroundColor=none;" parent="1" vertex="1" connectable="0">
          <mxGeometry x="401.00333333333253" y="980" as="geometry" />
        </mxCell>
        <mxCell id="Qgp2LlFuuxw4ACLHFYo1-88" value="&lt;a href=&quot;https://automaticaddison.com/the-ultimate-guide-to-the-ros-2-navigation-stack/&quot;&gt;&lt;b&gt;https://automaticaddison.com/the-ultimate-guide-to-the-ros-2-navigation-stack/&lt;/b&gt;&lt;/a&gt;" style="text;html=1;strokeColor=#36393d;fillColor=#ffff88;align=center;verticalAlign=middle;whiteSpace=wrap;rounded=0;direction=south;" parent="1" vertex="1">
          <mxGeometry x="570" y="305" width="260" height="50" as="geometry" />
        </mxCell>
      </root>
    </mxGraphModel>
  </diagram>
</mxfile>
